<svg id="Capa_1" enable-background="new 0 0 512 512" height="512" viewBox="0 0 512 512" width="512" xmlns="http://www.w3.org/2000/svg"><g><g><g><path d="m457 177h-402c-22.091 0-40 17.909-40 40v240c0 22.091 17.909 40 40 40h402c22.091 0 40-17.909 40-40v-240c0-22.091-17.909-40-40-40z" fill="#00ec89"/><g><path d="m15 337v120c0 22.091 17.909 40 40 40h402c22.091 0 40-17.909 40-40v-120z" fill="#00a763"/></g><path d="m457 512h-402c-30.327 0-55-24.673-55-55v-240c0-30.327 24.673-55 55-55h402c30.327 0 55 24.673 55 55v240c0 30.327-24.673 55-55 55zm-402-320c-13.785 0-25 11.215-25 25v240c0 13.785 11.215 25 25 25h402c13.785 0 25-11.215 25-25v-240c0-13.785-11.215-25-25-25z" fill="#f9f9f9"/><g><path d="m482 337v120c0 13.785-11.215 25-25 25h-402c-13.785 0-25-11.215-25-25v-120h-30v120c0 30.327 24.673 55 55 55h402c30.327 0 55-24.673 55-55v-120z" fill="#e4e4ff"/></g><g><g><circle cx="457" cy="217" fill="#524798" r="40"/><circle cx="55" cy="217" fill="#524798" r="40"/><g fill="#38336b"><circle cx="457" cy="457" r="40"/><circle cx="55" cy="457" r="40"/></g></g><path d="m457 272c-30.327 0-55-24.673-55-55s24.673-55 55-55 55 24.673 55 55-24.673 55-55 55zm0-80c-13.785 0-25 11.215-25 25s11.215 25 25 25 25-11.215 25-25-11.215-25-25-25z" fill="#f9f9f9"/><path d="m55 272c-30.327 0-55-24.673-55-55s24.673-55 55-55 55 24.673 55 55-24.673 55-55 55zm0-80c-13.785 0-25 11.215-25 25s11.215 25 25 25 25-11.215 25-25-11.215-25-25-25z" fill="#f9f9f9"/><g fill="#e4e4ff"><path d="m457 512c-30.327 0-55-24.673-55-55s24.673-55 55-55 55 24.673 55 55-24.673 55-55 55zm0-80c-13.785 0-25 11.215-25 25s11.215 25 25 25 25-11.215 25-25-11.215-25-25-25z"/><path d="m55 512c-30.327 0-55-24.673-55-55s24.673-55 55-55 55 24.673 55 55-24.673 55-55 55zm0-80c-13.785 0-25 11.215-25 25s11.215 25 25 25 25-11.215 25-25-11.215-25-25-25z"/></g></g><g><g><g><path d="m347 372c-19.299 0-35-15.701-35-35s15.701-35 35-35 35 15.701 35 35-15.701 35-35 35z" fill="#ffe196"/><path d="m347 302c-19.299 0-35-15.701-35-35s15.701-35 35-35 35 15.701 35 35-15.701 35-35 35z" fill="#ff6378"/><path d="m347 442c-19.299 0-35-15.701-35-35s15.701-35 35-35 35 15.701 35 35-15.701 35-35 35z" fill="#524798"/></g><g><path d="m286.5 407c-19.299 0-35-15.701-35-35s15.701-35 35-35 35 15.701 35 35-15.701 35-35 35z" fill="#ff6378"/><path d="m286.5 337c-19.299 0-35-15.701-35-35s15.701-35 35-35 35 15.701 35 35-15.701 35-35 35z" fill="#524798"/></g></g><path d="m125 372c-19.299 0-35-15.701-35-35s15.701-35 35-35 35 15.701 35 35-15.701 35-35 35z" fill="#f9f9f9"/></g><g><g><g><g><path d="m347 372c19.299 0 35-15.701 35-35h-70c0 19.299 15.701 35 35 35z" fill="#ffb454"/></g></g></g><g><g><g><path d="m347 302c19.299 0 35-15.701 35-35h-70c0 19.299 15.701 35 35 35z" fill="#d0004f"/></g></g></g><g><g><g><path d="m347 442c19.299 0 35-15.701 35-35h-70c0 19.299 15.701 35 35 35z" fill="#38336b"/></g></g></g><g><path d="m125 372c19.299 0 35-15.701 35-35h-70c0 19.299 15.701 35 35 35z" fill="#e4e4ff"/></g><g><g><g><path d="m286.5 407c19.299 0 35-15.701 35-35h-70c0 19.299 15.701 35 35 35z" fill="#d0004f"/></g></g></g><g><g><g><path d="m286.5 337c19.299 0 35-15.701 35-35h-70c0 19.299 15.701 35 35 35z" fill="#38336b"/></g></g></g></g></g></g><g><path d="m34.985.015 457.024 13.389c11.134.326 19.991 9.447 19.991 20.586 0 11.139-8.857 20.259-19.991 20.586l-457.024 13.389c-19.154.561-34.985-14.813-34.985-33.975 0-19.162 15.831-34.536 34.985-33.975z" fill="#524798"/><path d="m0 33.99c0 19.162 15.831 34.536 34.985 33.975l457.024-13.389c11.134-.327 19.991-9.447 19.991-20.586z" fill="#38336b"/></g></g></svg>