<svg id="Layer_1" enable-background="new 0 0 256 256" height="512" viewBox="0 0 256 256" width="512" xmlns="http://www.w3.org/2000/svg"><path d="m89.533 181.484c-.288-1.069-.52-2.184-.723-3.318h-22.724c-6.421 0-10.429-6.956-7.21-12.511l53.851-92.944 5.817-21.436c1.948-7.178 5.571-11.637 9.456-11.637-8.295 0-16.031 4.459-20.19 11.637l-61.914 106.86c-4.17 7.196-4.18 16.143-.027 23.349s11.899 11.682 20.216 11.682h32.915c-3.894 0-7.522-4.476-9.467-11.682z" fill="#ede49d"/><path d="m210.103 158.135-61.913-106.859c-4.159-7.178-11.895-11.637-20.19-11.637 3.885 0 7.508 4.459 9.456 11.637l5.817 21.436 53.851 92.944c3.219 5.555-.79 12.511-7.21 12.511h-22.724c-.203 1.134-.434 2.249-.723 3.318-1.945 7.206-5.573 11.682-9.469 11.682h32.915c8.317 0 16.063-4.476 20.216-11.682 4.154-7.207 4.144-16.153-.026-23.35z" fill="#d3ba2a"/><path d="m166.467 181.484c.288-1.069.52-2.184.723-3.318h-39.154-.073-39.153c.203 1.134.434 2.249.723 3.318 1.945 7.206 5.573 11.682 9.469 11.682h57.998c3.894 0 7.522-4.476 9.467-11.682z" fill="#eee045"/><path d="m118.544 51.276-5.817 21.436 8.063-13.916c3.21-5.541 11.211-5.541 14.421 0l8.063 13.916-5.817-21.436c-1.948-7.178-5.571-11.637-9.456-11.637s-7.509 4.459-9.457 11.637z" fill="#eee045"/><path d="m121.215 87.247c0-11.242 3.038-20.356 6.785-20.356-11.242 0-20.356 9.113-20.356 20.356s9.114 20.356 20.356 20.356c-3.747 0-6.785-9.113-6.785-20.356z" fill="#ef7f72"/><path d="m128 66.892c3.747 0 6.785 9.113 6.785 20.356s-3.038 20.356-6.785 20.356c11.242 0 20.356-9.113 20.356-20.356s-9.114-20.356-20.356-20.356z" fill="#e8383b"/><ellipse cx="128" cy="87.247" fill="#e95947" rx="6.785" ry="20.356"/><path d="m80.43 157.81c0-11.242 3.038-20.356 6.785-20.356-11.242 0-20.356 9.113-20.356 20.356 0 11.242 9.114 20.356 20.356 20.356-3.747 0-6.785-9.113-6.785-20.356z" fill="#89aadb"/><path d="m87.216 137.455c3.747 0 6.785 9.113 6.785 20.356 0 11.242-3.038 20.356-6.785 20.356 11.242 0 20.356-9.113 20.356-20.356-.001-11.243-9.114-20.356-20.356-20.356z" fill="#4b67b0"/><ellipse cx="87.216" cy="157.81" fill="#6287c5" rx="6.785" ry="20.356"/><path d="m87.215 181.166c-12.878 0-23.355-10.478-23.355-23.355s10.477-23.355 23.355-23.355 23.356 10.478 23.356 23.355-10.477 23.355-23.356 23.355zm0-40.711c-9.57 0-17.355 7.785-17.355 17.355s7.786 17.355 17.355 17.355c9.57 0 17.356-7.785 17.356-17.355s-7.785-17.355-17.356-17.355z" fill="#1c2d6b"/><path d="m128 181.166c-12.878 0-23.356-10.478-23.356-23.355s10.478-23.355 23.356-23.355 23.356 10.478 23.356 23.355-10.478 23.355-23.356 23.355zm0-40.711c-9.57 0-17.356 7.785-17.356 17.355s7.786 17.355 17.356 17.355 17.356-7.785 17.356-17.355-7.786-17.355-17.356-17.355z" fill="#1c2d6b"/><path d="m161.963 157.81c0-11.242 3.038-20.356 6.785-20.356-11.242 0-20.356 9.113-20.356 20.356 0 11.242 9.114 20.356 20.356 20.356-3.747 0-6.785-9.113-6.785-20.356z" fill="#a4d4a0"/><path d="m168.748 137.455c3.747 0 6.785 9.113 6.785 20.356 0 11.242-3.038 20.356-6.785 20.356 11.242 0 20.356-9.113 20.356-20.356s-9.114-20.356-20.356-20.356z" fill="#419b46"/><ellipse cx="168.748" cy="157.81" fill="#65bc49" rx="6.785" ry="20.356"/><path d="m168.785 181.166c-12.878 0-23.356-10.478-23.356-23.355s10.478-23.355 23.356-23.355 23.355 10.478 23.355 23.355-10.477 23.355-23.355 23.355zm0-40.711c-9.57 0-17.356 7.785-17.356 17.355s7.786 17.355 17.356 17.355 17.355-7.785 17.355-17.355-7.786-17.355-17.355-17.355z" fill="#1c2d6b"/><path d="m100.786 122.43c0-11.242 3.038-20.356 6.785-20.356-11.242 0-20.356 9.113-20.356 20.356s9.114 20.356 20.356 20.356c-3.747 0-6.785-9.114-6.785-20.356z" fill="#a4d4a0"/><path d="m107.571 102.075c3.747 0 6.785 9.113 6.785 20.356s-3.038 20.356-6.785 20.356c11.242 0 20.356-9.113 20.356-20.356s-9.114-20.356-20.356-20.356z" fill="#419b46"/><ellipse cx="107.571" cy="122.43" fill="#65bc49" rx="6.785" ry="20.356"/><path d="m107.608 145.786c-12.878 0-23.356-10.478-23.356-23.356s10.478-23.355 23.356-23.355 23.355 10.478 23.355 23.355c0 12.879-10.477 23.356-23.355 23.356zm0-40.712c-9.57 0-17.356 7.785-17.356 17.355s7.786 17.356 17.356 17.356 17.355-7.786 17.355-17.356-7.785-17.355-17.355-17.355z" fill="#1c2d6b"/><path d="m141.644 122.43c0-11.242 3.038-20.356 6.785-20.356-11.242 0-20.356 9.113-20.356 20.356s9.114 20.356 20.356 20.356c-3.748 0-6.785-9.114-6.785-20.356z" fill="#89aadb"/><path d="m148.429 102.075c3.747 0 6.785 9.113 6.785 20.356s-3.038 20.356-6.785 20.356c11.242 0 20.356-9.113 20.356-20.356s-9.114-20.356-20.356-20.356z" fill="#4b67b0"/><ellipse cx="148.429" cy="122.43" fill="#6287c5" rx="6.785" ry="20.356"/><path d="m148.392 145.786c-12.878 0-23.355-10.478-23.355-23.356s10.477-23.355 23.355-23.355 23.356 10.478 23.356 23.355c0 12.879-10.477 23.356-23.356 23.356zm0-40.712c-9.57 0-17.355 7.785-17.355 17.355s7.786 17.356 17.355 17.356c9.57 0 17.356-7.786 17.356-17.356s-7.786-17.355-17.356-17.355z" fill="#1c2d6b"/><path d="m121.215 157.81c0-11.242 3.038-20.356 6.785-20.356-11.242 0-20.356 9.113-20.356 20.356 0 11.242 9.114 20.356 20.356 20.356-3.747 0-6.785-9.113-6.785-20.356z" fill="#ef7f72"/><path d="m128 137.455c3.747 0 6.785 9.113 6.785 20.356 0 11.242-3.038 20.356-6.785 20.356 11.242 0 20.356-9.113 20.356-20.356s-9.114-20.356-20.356-20.356z" fill="#e8383b"/><ellipse cx="128" cy="157.81" fill="#e95947" rx="6.785" ry="20.356"/><g fill="#1c2d6b"><path d="m128 181.166c-12.878 0-23.356-10.478-23.356-23.355s10.478-23.355 23.356-23.355 23.356 10.478 23.356 23.355-10.478 23.355-23.356 23.355zm0-40.711c-9.57 0-17.356 7.785-17.356 17.355s7.786 17.355 17.356 17.355 17.356-7.785 17.356-17.355-7.786-17.355-17.356-17.355z"/><path d="m128 110.604c-12.878 0-23.356-10.478-23.356-23.356s10.478-23.355 23.356-23.355 23.356 10.478 23.356 23.355c0 12.878-10.478 23.356-23.356 23.356zm0-40.712c-9.57 0-17.356 7.785-17.356 17.355s7.786 17.356 17.356 17.356 17.356-7.786 17.356-17.356-7.786-17.355-17.356-17.355z"/><path d="m189.914 196.166h-123.828c-9.387 0-18.129-5.052-22.815-13.184-4.687-8.133-4.675-18.229.03-26.352l61.914-106.859c4.693-8.101 13.423-13.133 22.785-13.133s18.092 5.032 22.785 13.133l61.914 106.859c4.705 8.122 4.716 18.219.03 26.352-4.686 8.132-13.428 13.184-22.815 13.184zm-61.914-153.527c-7.229 0-13.97 3.886-17.594 10.141l-61.914 106.859c-3.633 6.271-3.642 14.068-.023 20.348 3.618 6.279 10.369 10.18 17.617 10.18h123.828c7.248 0 13.999-3.9 17.617-10.18 3.619-6.279 3.61-14.076-.023-20.348l-61.914-106.86c-3.624-6.255-10.365-10.14-17.594-10.14z"/><path d="m189.914 181.166h-123.828c-4.101 0-7.771-2.121-9.819-5.674-2.047-3.553-2.042-7.793.013-11.341l61.914-106.86c2.05-3.539 5.716-5.651 9.806-5.651s7.756 2.112 9.806 5.651l61.914 106.86c2.056 3.548 2.061 7.788.013 11.341-2.047 3.553-5.718 5.674-9.819 5.674zm-66.529-120.867-61.914 106.86c-.967 1.67-.97 3.665-.006 5.337.963 1.672 2.691 2.67 4.621 2.67h123.828c1.93 0 3.657-.998 4.621-2.67s.961-3.667-.006-5.337l-61.914-106.86c-.965-1.665-2.69-2.659-4.615-2.659s-3.65.994-4.615 2.659z"/><path d="m189.914 181.166h-123.828c-4.101 0-7.771-2.121-9.819-5.674-2.047-3.553-2.042-7.793.013-11.341l61.914-106.86c2.05-3.539 5.716-5.651 9.806-5.651s7.756 2.112 9.806 5.651l61.914 106.86c2.056 3.548 2.061 7.788.013 11.341-2.047 3.553-5.718 5.674-9.819 5.674zm-66.529-120.867-61.914 106.86c-.967 1.67-.97 3.665-.006 5.337.963 1.672 2.691 2.67 4.621 2.67h123.828c1.93 0 3.657-.998 4.621-2.67s.961-3.667-.006-5.337l-61.914-106.86c-.965-1.665-2.69-2.659-4.615-2.659s-3.65.994-4.615 2.659z"/></g><path d="m214.183 215.938-21.183-.126-10-.058-20-.119-121.475-.719c-1.967-.016-3.525-.346-3.525-.75 0 1.867 1.558 3.392 3.525 3.467l121.475 3.325 20 .55 10 .267 21.183.583c2.083.075 3.817-1.492 3.817-3.467v-3.703c0 .427-1.733.766-3.817.75z" fill="#d3ba2a"/><path d="m214.183 205.974-21.183.584-10 .267-10 .275-10 .275-121.475 3.325c-1.967.075-3.525 1.608-3.525 3.467 0-.402 1.558-.734 3.525-.75l121.475-.72 10-.06 10-.059 10-.058 21.183-.126c2.083-.016 3.817.323 3.817.75v-3.703c0-1.975-1.733-3.541-3.817-3.467z" fill="#ede49d"/><path d="m214.183 212.394-21.183.126-10 .058-10 .059-10 .06-121.475.719c-1.967.016-3.525.348-3.525.75 0 .404 1.558.734 3.525.75l121.475.719 20 .119 10 .058 21.183.126c2.083.016 3.817-.323 3.817-.75v-2.044c0-.427-1.733-.766-3.817-.75z" fill="#eee045"/><path d="m214.327 225.361c-.084 0-.168-.002-.252-.005l-172.63-4.727c-3.626-.133-6.445-2.972-6.445-6.463 0-3.489 2.818-6.328 6.416-6.462l172.688-4.73c1.814-.059 3.622.616 4.929 1.877 1.269 1.222 1.967 2.852 1.967 4.587v9.456c0 1.735-.699 3.364-1.967 4.586-1.248 1.204-2.951 1.881-4.706 1.881zm.005-16.39c-.012 0-.023 0-.035.001l-172.688 4.73c-.347.013-.609.256-.609.465s.262.452.637.466l172.631 4.727c.361.023.536-.136.602-.199.086-.083.13-.173.13-.266v-9.456c0-.094-.044-.184-.13-.267-.064-.062-.242-.201-.538-.201z" fill="#1c2d6b"/><path d="m183 221.508 10 .266v-5.835l-10-.062z" fill="#419b46"/><path d="m183 206.824v5.632l10-.062v-5.836z" fill="#a4d4a0"/><path d="m183 215.877 10 .062v-3.545l-10 .062z" fill="#65bc49"/><path d="m193 224.774c-.026 0-.053 0-.08-.001l-10-.267c-1.625-.043-2.92-1.373-2.92-2.999v-14.684c0-1.626 1.295-2.956 2.92-2.999l10-.267c.824-.029 1.593.285 2.173.85.58.564.907 1.34.907 2.149v15.217c0 .81-.327 1.585-.907 2.149-.561.548-1.312.852-2.093.852zm-7-6.187 4 .106v-9.055l-4 .106z" fill="#1c2d6b"/><path d="m163 220.958 10 .275v-5.294l-10-.07z" fill="#e8383b"/><path d="m163 207.375v5.088l10-.069v-5.295z" fill="#ef7f72"/><path d="m163 215.869 10 .07v-3.545l-10 .069z" fill="#e95947"/><path d="m173 224.232c-.027 0-.055 0-.083-.001l-10-.274c-1.624-.045-2.917-1.374-2.917-2.999v-13.583c0-1.625 1.293-2.954 2.917-2.999l10-.275c.799-.046 1.594.283 2.174.849.581.564.908 1.341.908 2.15v14.133c0 .81-.328 1.585-.908 2.15-.56.546-1.311.849-2.091.849zm-7-6.193 4 .11v-7.966l-4 .11z" fill="#1c2d6b"/></svg>