<svg height="511pt" viewBox="0 -113 511.99975 511" width="511pt" xmlns="http://www.w3.org/2000/svg"><path d="m278.21875 143.394531c0 74.738281-60.585938 135.324219-135.324219 135.324219-74.734375 0-135.320312-60.585938-135.320312-135.324219 0-74.734375 60.585937-135.320312 135.320312-135.320312 74.738281 0 135.324219 60.585937 135.324219 135.320312zm0 0" fill="#e1ebef"/><path d="m146.257812 8.117188c47.9375 20.820312 81.464844 68.574218 81.464844 124.167968 0 74.738282-60.585937 135.324219-135.320312 135.324219-1.125 0-2.246094-.015625-3.363282-.042969 16.507813 7.167969 34.714844 11.152344 53.855469 11.152344 74.738281 0 135.324219-60.585938 135.324219-135.324219 0-73.613281-58.777344-133.496093-131.960938-135.277343zm0 0" fill="#c4d3d6"/><path d="m7.574219 143.394531c0 35.035157 13.3125 66.960938 35.160156 90.992188h200.324219c21.84375-24.03125 35.160156-55.957031 35.160156-90.992188 0-35.035156-13.316406-66.960937-35.160156-90.992187h-200.324219c-21.847656 24.03125-35.160156 55.957031-35.160156 90.992187zm0 0" fill="#ffd432"/><path d="m201.617188 52.402344c16.40625 22.386718 26.105468 50 26.105468 79.882812 0 40.753906-18.011718 77.292969-46.511718 102.101563h61.847656c21.84375-24.03125 35.160156-55.957031 35.160156-90.992188 0-35.035156-13.316406-66.957031-35.160156-90.992187zm0 0" fill="#f4ac03"/><path d="m202.476562 143.394531c0 32.90625-26.675781 59.582031-59.582031 59.582031s-59.582031-26.675781-59.582031-59.582031 26.675781-59.582031 59.582031-59.582031 59.582031 26.675781 59.582031 59.582031zm0 0" fill="#e1ebef"/><path d="m504.425781 175.710938-191.875-4.039063v-56.554687l191.875-4.039063h7.070313v64.632813zm0 0" fill="#f0a65f"/><path d="m504.425781 111.078125-6.058593.128906v31.980469c0 5.65625-4.648438 10.210938-10.304688 10.097656l-175.511719-3.554687v21.941406l198.945313 4.039063v-64.632813zm0 0" fill="#e28540"/><path d="m399.402344 113.289062-86.851563 1.828126v56.554687l86.851563 1.828125zm0 0" fill="#757574"/><path d="m383.242188 113.632812v27.527344c0 5.660156-4.652344 10.214844-10.308594 10.097656l-60.378906-1.273437v21.6875l86.847656 1.828125v-60.210938zm0 0" fill="#565656"/><path d="m249.339844 238.617188c22.652344-25.292969 36.449218-58.675782 36.449218-95.222657s-13.796874-69.925781-36.449218-95.222656c-.410156-.609375-.90625-1.152344-1.472656-1.617187-26.125-28.300782-63.511719-46.054688-104.972657-46.054688-41.460937 0-78.847656 17.753906-104.972656 46.054688-.566406.464843-1.0625 1.007812-1.472656 1.617187-22.652344 25.296875-36.449219 58.675781-36.449219 95.222656s13.796875 69.929688 36.449219 95.222657c.410156.609374.90625 1.15625 1.472656 1.621093 26.128906 28.296875 63.515625 46.050781 104.972656 46.050781 41.460938 0 78.847657-17.753906 104.972657-46.050781.566406-.464843 1.0625-1.011719 1.472656-1.621093zm-203.117188-178.640626h61.328125c4.183594 0 7.574219-3.390624 7.574219-7.574218s-3.390625-7.574219-7.574219-7.574219h-45.835937c22.085937-18.222656 50.378906-29.179687 81.179687-29.179687 30.804688 0 59.09375 10.957031 81.179688 29.179687h-81.179688c-4.179687 0-7.574219 3.390625-7.574219 7.574219s3.394532 7.574218 7.574219 7.574218h96.675781c19.351563 22.398438 31.074219 51.5625 31.074219 83.417969s-11.722656 61.019531-31.074219 83.417969h-193.347656c-19.355468-22.398438-31.074218-51.5625-31.074218-83.417969s11.71875-61.019531 31.074218-83.417969zm15.492188 181.984376h162.359375c-22.085938 18.222656-50.375 29.179687-81.179688 29.179687-30.800781 0-59.09375-10.957031-81.179687-29.179687zm0 0"/><path d="m142.894531 210.550781c37.03125 0 67.15625-30.125 67.15625-67.15625s-30.125-67.15625-67.15625-67.15625c-37.027343 0-67.15625 30.125-67.15625 67.15625s30.125 67.15625 67.15625 67.15625zm0-119.164062c28.679688 0 52.007813 23.332031 52.007813 52.007812 0 28.679688-23.328125 52.007813-52.007813 52.007813-28.675781 0-52.007812-23.328125-52.007812-52.007813 0-28.675781 23.332031-52.007812 52.007812-52.007812zm0 0"/><path d="m147.945312 161.574219h-20.199218c-4.179688 0-7.570313 3.390625-7.570313 7.574219 0 4.179687 3.390625 7.574218 7.570313 7.574218h20.199218c9.746094 0 17.671876-7.929687 17.671876-17.675781v-15.148437c0-.167969-.011719-.335938-.023438-.503907.011719-.167969.023438-.332031.023438-.503906v-15.148437c0-9.746094-7.925782-17.671876-17.671876-17.671876h-10.097656c-9.746094 0-17.675781 7.925782-17.675781 17.671876v5.046874c0 9.746094 7.929687 17.675782 17.675781 17.675782h12.621094v8.582031c0 1.394531-1.132812 2.527344-2.523438 2.527344zm-12.625-28.785157v-5.046874c0-1.394532 1.132813-2.523438 2.527344-2.523438h10.097656c1.394532 0 2.527344 1.128906 2.527344 2.523438v7.574218h-12.625c-1.394531 0-2.527344-1.132812-2.527344-2.527344zm0 0"/><path d="m447.871094 119.84375h.164062l56.550782-1.191406c4.179687-.089844 7.5-3.550782 7.410156-7.734375-.085938-4.179688-3.523438-7.519531-7.730469-7.410157l-56.550781 1.191407c-4.183594.085937-7.5 3.546875-7.414063 7.730469.089844 4.128906 3.460938 7.414062 7.570313 7.414062zm0 0"/><path d="m504.585938 168.140625-97.609376-2.058594v-45.375l4.703126-.097656c4.179687-.089844 7.5-3.550781 7.410156-7.734375-.085938-4.179688-3.585938-7.492188-7.730469-7.410156l-98.96875 2.082031c-4.117187.089844-7.414063 3.453125-7.414063 7.574219v56.550781c0 4.121094 3.296876 7.484375 7.414063 7.570313l86.847656 1.828124h.003907l105.023437 2.210938c.054687.003906.105469.003906.164063.003906 4.105468 0 7.480468-3.289062 7.566406-7.414062.089844-4.183594-3.230469-7.644532-7.410156-7.730469zm-112.757813-47.117187v44.742187l-71.699219-1.511719v-41.71875zm0 0"/><path d="m296.785156 76.28125c1.367188 2.546875 3.980469 4 6.683594 4 1.207031 0 2.433594-.289062 3.570312-.898438 3.6875-1.976562 5.074219-6.566406 3.101563-10.253906l-15.148437-28.277344c-1.976563-3.683593-6.5625-5.070312-10.253907-3.097656-3.683593 1.972656-5.074219 6.566406-3.097656 10.253906zm0 0"/><path d="m324.121094 79.382812c1.140625.605469 2.363281.898438 3.570312.898438 2.703125 0 5.320313-1.453125 6.683594-4l15.148438-28.277344c1.976562-3.6875.585937-8.277344-3.097657-10.253906-3.691406-1.972656-8.28125-.585938-10.253906 3.101562l-15.148437 28.277344c-1.976563 3.6875-.585938 8.277344 3.097656 10.253906zm0 0"/><path d="m307.039062 207.410156c-3.6875-1.976562-8.273437-.589844-10.25 3.097656l-15.148437 28.277344c-1.976563 3.6875-.585937 8.277344 3.097656 10.253906 1.140625.609376 2.363281.898438 3.570313.898438 2.703125 0 5.320312-1.453125 6.683594-4l15.148437-28.277344c1.976563-3.683594.585937-8.277344-3.101563-10.25zm0 0"/><path d="m334.378906 210.507812c-1.976562-3.6875-6.566406-5.074218-10.253906-3.101562-3.6875 1.976562-5.074219 6.566406-3.101562 10.253906l15.148437 28.277344c1.367187 2.546875 3.980469 4 6.683594 4 1.207031 0 2.429687-.292969 3.570312-.902344 3.683594-1.972656 5.074219-6.5625 3.097657-10.25zm0 0"/></svg>