<svg height="512pt" viewBox="-7 0 512 512" width="512pt" xmlns="http://www.w3.org/2000/svg"><path d="m128.5 185c-12.40625 0-22.5 10.09375-22.5 22.5 0 4.144531 3.355469 7.5 7.5 7.5s7.5-3.355469 7.5-7.5c0-4.136719 3.363281-7.5 7.5-7.5h120v-15zm0 0" fill="#fbbd57"/><path d="m383.5 95c-4.144531 0-7.5 3.355469-7.5 7.5 0 45.488281-37.011719 82.5-82.5 82.5h-45v15h45c53.761719 0 97.5-43.738281 97.5-97.5 0-4.144531-3.355469-7.5-7.5-7.5zm0 0" fill="#fbbd57"/><path d="m30 352.5v152h30l30-122zm0 0" fill="#974d34"/><path d="m407 382.5 30 122h30v-152zm0 0" fill="#974d34"/><path d="m467 262.5-30 60 30 60h30v-90c0-16.5-13.5-30-30-30zm0 0" fill="#c0c0c0"/><path d="m60 262.5h-30c-16.5 0-30 13.5-30 30v90h60l30-60zm0 0" fill="#d2d2d2"/><path d="m467 262.5v120h-30l-30-60 30-60zm0 0" fill="#d2d2d2"/><path d="m60 262.5v30l188.5 75 188.5-75v-30zm0 0" fill="#974d34"/><path d="m60 292.5h377v90h-377zm0 0" fill="#c96f3d"/><path d="m211 292.5v196.59375l-24.871094 8.289062c-3.929687 1.308594-6.050781 5.554688-4.742187 9.484376 1.308593 3.933593 5.558593 6.054687 9.484375 4.746093l30-10c3.0625-1.019531 5.128906-3.886719 5.128906-7.117187v-201.996094zm0 0" fill="#fbbd57"/><path d="m286 292.5v196.59375l24.871094 8.289062c3.929687 1.308594 6.050781 5.554688 4.742187 9.484376-1.308593 3.933593-5.558593 6.054687-9.484375 4.746093l-30-10c-3.0625-1.019531-5.128906-3.886719-5.128906-7.117187v-201.996094zm0 0" fill="#f7983d"/><path d="m143.5 512c-4.144531 0-7.5-3.355469-7.5-7.5v-497c0-4.144531 3.355469-7.5 7.5-7.5s7.5 3.355469 7.5 7.5v497c0 4.144531-3.355469 7.5-7.5 7.5zm0 0" fill="#e0843d"/><path d="m293.5 262.5v-70c0-11.046875-8.953125-20-20-20h-30v120l35 60h30v-50.335938c0-15.210937-5.671875-29.089843-15-39.664062zm0 0" fill="#ffd0a3"/><path d="m263.5 262.5v-70c0-11.046875-8.953125-20-20-20h-20c-11.046875 0-20 8.953125-20 20v70c-9.328125 10.574219-15 24.453125-15 39.664062v50.335938h90v-50.335938c0-15.210937-5.671875-29.089843-15-39.664062zm0 0" fill="#ffe8d1"/><path d="m406 50c0 12.425781-10.074219 22.5-22.5 22.5s-22.5-10.074219-22.5-22.5 10.074219-22.5 22.5-22.5 22.5 10.074219 22.5 22.5zm0 0" fill="#9682c9"/><path d="m215.921875 66.46875-36.207031 38.015625c-3.847656 4.039063-6.214844 9.5-6.214844 15.515625 0 12.425781 10.074219 22.5 22.5 22.5h52.5v-76.03125zm0 0" fill="#7d402b"/><path d="m317.285156 104.484375-36.207031-38.015625h-32.578125v76.03125h52.5c12.425781 0 22.5-10.074219 22.5-22.5 0-6.015625-2.367188-11.476562-6.214844-15.515625zm0 0" fill="#623221"/><path d="m282.753906 68.335938c.011719-.011719-34.253906-.007813-34.253906-.007813v74.171875c24.851562 0 45-20.148438 45-45 0-11.121094-4.046875-21.316406-10.746094-29.164062zm0 0" fill="#f7983d"/><path d="m262.390625 80.511719-48.144531-12.175781c-6.699219 7.847656-10.746094 18.042968-10.746094 29.164062 0 24.851562 20.148438 45 45 45 8.28125 0 15-20.148438 15-45 0-6.011719-.390625-11.75-1.109375-16.988281zm0 0" fill="#fbbd57"/><path d="m248.5 52.5 13.890625 28.011719c7.449219-2.230469 14.472656-6.296875 20.363281-12.175781-8.25-9.691407-20.535156-15.835938-34.253906-15.835938zm0 0" fill="#623221"/><path d="m248.5 52.5c-13.71875 0-26.003906 6.144531-34.253906 15.835938 13.039062 13.039062 31.644531 17.105468 48.144531 12.175781-2.230469-16.433594-7.609375-28.011719-13.890625-28.011719zm0 0" fill="#7d402b"/><path d="m143.5 230h-15c-12.40625 0-22.5-10.09375-22.5-22.5 0-4.144531 3.355469-7.5 7.5-7.5s7.5 3.355469 7.5 7.5c0 4.136719 3.363281 7.5 7.5 7.5h15c4.144531 0 7.5 3.355469 7.5 7.5s-3.355469 7.5-7.5 7.5zm0 0" fill="#fbbd57"/></svg>