<svg id="Layer_1" height="512" viewBox="0 0 256 256" width="512" xmlns="http://www.w3.org/2000/svg"><g><g><g><path d="m30.472 233.821c-8.629 0-16.619-4.672-20.85-12.192s-4.079-16.774.4-24.149l99.442-163.793c4.375-7.206 12.02-11.508 20.449-11.508 8.474 0 16.391 4.546 20.663 11.863l95.618 163.793c4.307 7.378 4.34 16.565.087 23.974-4.254 7.409-12.204 12.012-20.748 12.012z" fill="#eaa97d"/></g></g><g><g><path d="m225.532 217.509h-195.06c-5.935 0-9.587-6.49-6.507-11.563l99.442-163.793c2.994-4.932 10.172-4.87 13.081.113l95.617 163.793c2.964 5.075-.697 11.45-6.573 11.45z" fill="#a4c9ff"/></g></g><g><g><g><g><circle cx="127.975" cy="189.099" fill="#ffea92" r="28.41"/></g></g><g><g><ellipse cx="127.975" cy="167.349" fill="#e0ebfc" rx="18.272" ry="6.661"/></g></g><g><g><ellipse cx="127.975" cy="210.848" fill="#e0ebfc" rx="18.272" ry="6.661"/></g></g><g><g><path d="m127.975 219.509c-16.768 0-30.41-13.642-30.41-30.411 0-16.768 13.642-30.41 30.41-30.41 16.769 0 30.411 13.642 30.411 30.41 0 16.769-13.642 30.411-30.411 30.411zm0-56.821c-14.563 0-26.41 11.848-26.41 26.41 0 14.563 11.848 26.411 26.41 26.411 14.563 0 26.411-11.848 26.411-26.411 0-14.562-11.848-26.41-26.411-26.41z" fill="#3762cc"/></g></g></g><g><g><circle cx="71.047" cy="189.099" fill="#6bdddd" r="28.41"/></g></g><g><g><circle cx="71.047" cy="189.099" fill="#e0ebfc" r="12.098"/></g></g><g><g><circle cx="184.688" cy="189.099" fill="#b9befc" r="28.41"/></g></g><g><g><circle cx="184.688" cy="189.099" fill="#e0ebfc" r="12.098"/></g></g><g><g><circle cx="156.278" cy="139.867" fill="#4671c6" r="28.41"/></g></g><g><g><circle cx="156.278" cy="139.867" fill="#e0ebfc" r="12.098"/></g></g><g><g><circle cx="99.457" cy="139.867" fill="#f9a7a7" r="28.41"/></g></g><g><g><circle cx="99.457" cy="139.867" fill="#e0ebfc" r="12.098"/></g></g><g><g><g><circle cx="127.975" cy="90.723" fill="#ffea92" r="28.41"/></g></g><g><g><path d="m127.975 121.133c-16.768 0-30.41-13.642-30.41-30.41 0-16.769 13.642-30.411 30.41-30.411 16.769 0 30.411 13.642 30.411 30.411 0 16.768-13.642 30.41-30.411 30.41zm0-56.82c-14.563 0-26.41 11.848-26.41 26.411s11.848 26.41 26.41 26.41c14.563 0 26.411-11.848 26.411-26.41 0-14.564-11.848-26.411-26.411-26.411z" fill="#3762cc"/></g></g></g><g><g><circle cx="127.868" cy="90.723" fill="#e0ebfc" r="12.098"/></g></g><g><g><path d="m71.047 219.509c-16.769 0-30.411-13.642-30.411-30.411 0-16.768 13.642-30.41 30.411-30.41 16.768 0 30.41 13.642 30.41 30.41.001 16.769-13.642 30.411-30.41 30.411zm0-56.821c-14.563 0-26.411 11.848-26.411 26.41 0 14.563 11.848 26.411 26.411 26.411s26.41-11.848 26.41-26.411c.001-14.562-11.847-26.41-26.41-26.41z" fill="#3762cc"/></g></g><g><g><path d="m184.688 219.509c-16.769 0-30.411-13.642-30.411-30.411 0-16.768 13.642-30.41 30.411-30.41 16.768 0 30.41 13.642 30.41 30.41.001 16.769-13.641 30.411-30.41 30.411zm0-56.821c-14.563 0-26.411 11.848-26.411 26.41 0 14.563 11.848 26.411 26.411 26.411s26.41-11.848 26.41-26.411c.001-14.562-11.847-26.41-26.41-26.41z" fill="#3762cc"/></g></g><g><g><path d="m156.278 170.277c-16.768 0-30.41-13.642-30.41-30.41s13.642-30.41 30.41-30.41c16.769 0 30.411 13.642 30.411 30.41s-13.643 30.41-30.411 30.41zm0-56.82c-14.563 0-26.41 11.848-26.41 26.41s11.848 26.41 26.41 26.41c14.563 0 26.411-11.848 26.411-26.41s-11.848-26.41-26.411-26.41z" fill="#3762cc"/></g></g><g><g><path d="m99.458 170.277c-16.768 0-30.41-13.642-30.41-30.41s13.642-30.41 30.41-30.41 30.41 13.642 30.41 30.41-13.642 30.41-30.41 30.41zm0-56.82c-14.563 0-26.41 11.848-26.41 26.41s11.848 26.41 26.41 26.41 26.41-11.848 26.41-26.41-11.848-26.41-26.41-26.41z" fill="#3762cc"/></g></g></g><g><g><path d="m225.532 235.821h-195.06c-9.35 0-18.007-5.062-22.593-13.211-4.585-8.148-4.419-18.175.433-26.168l99.442-163.792c4.741-7.809 13.025-12.471 22.159-12.471 9.182 0 17.761 4.926 22.39 12.855l95.618 163.793c4.667 7.995 4.704 17.949.094 25.978s-13.225 13.016-22.483 13.016zm-95.619-211.642c-7.725 0-14.73 3.943-18.74 10.547l-99.442 163.792c-4.104 6.76-4.244 15.24-.366 22.13 3.877 6.892 11.199 11.173 19.106 11.173h195.06c7.83 0 15.115-4.218 19.014-11.008s3.868-15.208-.079-21.97l-95.617-163.793c-3.915-6.706-11.171-10.871-18.936-10.871z" fill="#3762cc"/></g></g><g><g><path d="m225.532 219.509h-195.06c-3.52 0-6.651-1.831-8.377-4.898s-1.666-6.694.161-9.703l99.442-163.793c1.761-2.9 4.827-4.624 8.213-4.624h.086c3.421.03 6.494 1.812 8.218 4.766l95.617 163.793c1.757 3.009 1.77 6.61.035 9.632-1.734 3.023-4.85 4.827-8.335 4.827zm-95.619-179.018c-1.978 0-3.768 1.007-4.796 2.7l-99.442 163.793c-1.066 1.756-1.102 3.874-.094 5.665s2.836 2.86 4.891 2.86h195.06c2.035 0 3.854-1.053 4.867-2.818s1.005-3.867-.02-5.624l-95.617-163.793c-1.007-1.725-2.801-2.766-4.799-2.783-.017 0-.034 0-.05 0z" fill="#3762cc"/></g></g></g></svg>