<svg id="Capa_1" enable-background="new 0 0 512 512" height="512" viewBox="0 0 512 512" width="512" xmlns="http://www.w3.org/2000/svg"><g><g><path d="m256 312.776c-141.387 0-244.092-145.143-223.217-182.211 43.886-77.931 127.404-130.565 223.217-130.565 95.764 0 179.246 52.58 223.15 130.447 20.916 37.096-81.763 182.329-223.15 182.329zm256-56.776" fill="#bc98e6"/><path d="m512 256c0 26.051-3.891 51.191-11.129 74.871-5.031 16.469-11.672 32.231-19.75 47.109-8.25 15.2-147.391 55.692-225.121 55.692s-216.871-40.492-225.109-55.692c-3.289-6.031-6.332-12.21-9.121-18.531-14-31.629-21.77-66.629-21.77-103.449 0-46.219 12.25-89.57 33.68-127 44.121 77.07 127.16 129 222.32 129s178.211-51.93 222.32-129c21.43 37.43 33.68 80.781 33.68 127zm0 0" fill="#9a65d9"/><path d="m481.262 377.699c-7.16 13.223-15.434 25.742-24.723 37.43-8.437 10.633-17.719 20.57-27.719 29.723-19.275 17.65-41.262 32.389-65.262 43.518-8.201 3.803-20.346-5.528-28.989-2.596-8.956 3.039-14.425 18.307-23.795 20.35-17.648 3.849-35.974 5.876-54.774 5.876-39.539 0-76.987-8.967-110.419-24.978-22.888-10.961-11.692-23.316-30.199-40.263-4.406-4.033-40.875-10.126-44.992-14.456-5.226-5.497-10.21-11.227-14.929-17.175-9.289-11.688-17.563-24.207-24.723-37.43h450.524zm0 0" fill="#5541b6"/></g><g><path d="m366.316 301.243c0-16.099-10.323-29.835-24.698-34.936v-98.733l13.844-13.844c14.447-14.447 14.447-37.939 0-52.386s-37.939-14.447-52.386 0l-13.844 13.844h-83.451-83.451l-13.844-13.844c-14.447-14.447-37.939-14.447-52.386 0s-14.447 37.939 0 52.386l13.844 13.844v98.733c-14.375 5.101-24.698 18.837-24.698 34.936 0 16.1 10.323 29.835 24.698 34.936v95.647c6.244 6.605 12.835 12.877 19.745 18.788 3.599 3.078 9.997.44 13.765 3.318 2.691 2.056 2.711 9.677 5.484 11.627 11.726 8.244 24.176 15.528 37.235 21.74h59.607 83.451l13.844 13.844c2.025 2.025 4.231 3.755 6.561 5.211 18.928-4.036 37.078-10.163 54.203-18.129 5.063-13.239 2.277-28.812-8.379-39.468l-13.844-13.844v-98.733c14.377-5.102 24.7-18.837 24.7-34.937z" fill="#535564"/><path d="m366.316 301.243c0-16.099-10.323-29.835-24.698-34.936v-98.733l13.844-13.844c14.447-14.447 14.447-37.939 0-52.386s-37.939-14.447-52.386 0l-13.844 13.844h-83.451v372.11h83.451l13.844 13.844c2.025 2.025 4.231 3.755 6.561 5.211 18.928-4.036 37.078-10.163 54.203-18.129 5.063-13.239 2.277-28.812-8.379-39.468l-13.844-13.844v-98.732c14.376-5.102 24.699-18.837 24.699-34.937z" fill="#3b3b3b"/><path d="m329.27 313.592c6.814 0 12.349-5.535 12.349-12.349s-5.535-12.349-12.349-12.349h-12.349v-131.546l21.08-21.08c4.812-4.812 4.812-12.65 0-17.462-4.824-4.824-12.638-4.824-17.462 0l-21.08 21.08h-93.677-93.677l-21.08-21.08c-4.824-4.824-12.638-4.824-17.462 0-4.812 4.812-4.812 12.65 0 17.462l21.08 21.08v131.547h-12.349c-6.813 0-12.349 5.535-12.349 12.349s5.535 12.349 12.349 12.349h12.349v131.547l-5.233 5.233c3.117 2.674 9.646 2.191 12.891 4.714 3.306 2.571 3.33 8.146 6.762 10.556l3.042-3.042h93.677 93.677l21.08 21.08c4.824 4.824 12.638 4.824 17.462 0 4.812-4.812 4.812-12.65 0-17.462l-21.08-21.08v-131.547z" fill="#a8eb58"/><path d="m91.025 118.806c-4.824-4.824-12.638-4.824-17.462 0-4.812 4.812-4.812 12.65 0 17.462l21.08 21.08v131.547h-12.349c-6.813 0-12.349 5.535-12.349 12.349s5.535 12.349 12.349 12.349h12.349v131.547l-5.233 5.233c6.293 5.398 12.852 10.495 19.653 15.271l3.042-3.042h38.309v-322.716h-38.309z" fill="#d4f6ab"/><path d="m320.539 483.681c4.824 4.824 12.638 4.824 17.462 0 4.812-4.812 4.812-12.65 0-17.462l-21.08-21.08v-131.547h12.349c6.814 0 12.349-5.535 12.349-12.349s-5.535-12.349-12.349-12.349h-12.349v-131.546l21.08-21.08c4.812-4.812 4.812-12.65 0-17.462-4.824-4.824-12.638-4.824-17.462 0l-21.08 21.08h-93.677v322.715h93.677z" fill="#80cf8c"/><g><path d="m181.084 238.676c-20.428 0-37.046-16.618-37.046-37.046s16.618-37.046 37.046-37.046c20.429 0 37.046 16.618 37.046 37.046s-16.617 37.046-37.046 37.046z" fill="#e36565"/></g><g><path d="m255.177 338.29c-20.428 0-37.046-16.618-37.046-37.046 0-20.429 16.618-37.046 37.046-37.046 20.429 0 37.046 16.618 37.046 37.046s-16.618 37.046-37.046 37.046z" fill="#dddfe7"/></g><g><path d="m156.386 437.903c-20.428 0-37.046-17.441-37.046-37.87s16.618-37.046 37.046-37.046c20.429 0 37.046 16.618 37.046 37.046.001 20.429-16.617 37.87-37.046 37.87z" fill="#8ab8ec"/></g><g><path d="m242.828 189.281h223.925v24.698h-223.925z" fill="#efc142"/></g></g><g fill="#fff"><path d="m436.093 142.158h-1.524c-6.754 0-12.226-5.477-12.226-12.227v-1.523h-8.715v1.523c0 6.75-5.477 12.227-12.227 12.227h-1.527v8.715h1.527c6.75 0 12.227 5.472 12.227 12.226v1.528h8.715v-1.527c0-6.754 5.472-12.226 12.226-12.226h1.524zm0 0"/><path d="m482.935 263.696h-1.524c-6.754 0-12.226-5.477-12.226-12.227v-1.523h-8.715v1.523c0 6.75-5.477 12.227-12.227 12.227h-1.527v8.715h1.527c6.75 0 12.227 5.472 12.227 12.226v1.528h8.715v-1.528c0-6.754 5.472-12.226 12.226-12.226h1.524zm0 0"/><path d="m422.167 323.199h-1.524c-6.754 0-12.226-5.477-12.226-12.227v-1.523h-8.715v1.523c0 6.75-5.477 12.227-12.227 12.227h-1.527v8.715h1.527c6.75 0 12.227 5.472 12.227 12.226v1.528h8.715v-1.528c0-6.754 5.472-12.226 12.226-12.226h1.524zm0 0"/></g></g></svg>