<?xml version="1.0"?>
<svg xmlns="http://www.w3.org/2000/svg" xmlns:xlink="http://www.w3.org/1999/xlink" xmlns:svgjs="http://svgjs.com/svgjs" version="1.1" width="512" height="512" x="0" y="0" viewBox="0 0 512 512" style="enable-background:new 0 0 512 512" xml:space="preserve" class=""><g transform="matrix(1,0,0,1,2.842170943040401e-14,2.842170943040401e-14)">
<g xmlns="http://www.w3.org/2000/svg">
	<g>
		<path d="M230.388,433.535l-42.036-117.289c-1.218-3.396-3.253-6.442-5.924-8.867l-38.14-34.607l14.402-21.815l-59.321-7.36    c-15.367,9.39-34.598,6.444-46.544-5.775l-12.091-1.5c-7.766,10.982-8.653,25.412-2.289,37.262l34.8,64.808l-23.05,97.505    c-2.794,11.821,4.523,23.667,16.342,26.461c11.824,2.795,23.669-4.53,26.46-16.342l24.967-105.61    c1.234-5.223,0.517-10.716-2.017-15.446l-17.518-32.695v-0.001c8.952,5.91,0.333-1.407,50.37,43.996l40.182,112.115    c4.101,11.435,16.692,17.379,28.124,13.281C228.539,457.559,234.486,444.969,230.388,433.535z" fill="#034e52" data-original="#000000" style="" class=""/>
	</g>
</g>
<g xmlns="http://www.w3.org/2000/svg">
	<g>
		<circle cx="209.329" cy="90.717" r="41.67" fill="#034e52" data-original="#000000" style="" class=""/>
	</g>
</g>
<g xmlns="http://www.w3.org/2000/svg">
	<g>
		<path d="M281.926,221.208l-41.772-1.645l59.184,15.349C297.165,227.271,290.295,221.538,281.926,221.208z" fill="#034e52" data-original="#000000" style="" class=""/>
	</g>
</g>
<g xmlns="http://www.w3.org/2000/svg">
	<g>
		<path d="M21.259,182.293l-6.58-1.463c-2.673-0.594-5.473-0.079-7.761,1.425c-2.288,1.504-3.874,3.871-4.388,6.561    c-0.794,4.161-1.557,8.157-2.351,12.317c-0.515,2.702,0.085,5.496,1.666,7.747c1.58,2.251,4.005,3.764,6.72,4.198l32.02,5.118    L21.259,182.293z" fill="#034e52" data-original="#000000" style="" class=""/>
	</g>
</g>
<g xmlns="http://www.w3.org/2000/svg">
	<g>
		<path d="M201.842,185.494c7.431-12.804,3.665-29.337-8.848-37.599l-41.894-27.658c-9.992-6.597-22.64-5.987-31.843,0.565    l27.381,8.59L40.557,115.469c-7.034-0.927-13.977,2.168-18,8.001c-4.022,5.833-4.44,13.427-1.083,19.667l41.622,77.317    c4.943,9.181,16.39,12.618,25.574,7.675c9.181-4.942,12.617-16.391,7.676-25.573l-24.142-44.849l69.52,9.126l-42.334,1.82    l9.013,16.744c11.798,3.06,94.834,24.594,106.647,27.657L201.842,185.494z" fill="#034e52" data-original="#000000" style="" class=""/>
	</g>
</g>
<g xmlns="http://www.w3.org/2000/svg">
	<g>
		<path d="M384.465,268.117v-0.001c0.521-2.726-1.22-5.372-3.929-5.974l-264.057-58.686c1.979,9.02,0.525,18.359-3.832,26.258    l240.268,38.404c-6.175,0-103.454,0-141.919,0c-3.403,0-6.581,1.704-8.466,4.537c-1.884,2.834-2.229,6.425-0.911,9.563    l19.337,46.036c1.586,3.774,5.28,6.229,9.373,6.229h13.252c0.861,10.275,8.391,100.132,10.371,123.764    c0.223,2.658,2.443,4.706,5.11,4.706h8.856c2.672,0,4.887-2.044,5.11-4.706c1.98-23.634,9.51-113.491,10.371-123.764H512v-66.365    H384.465z" fill="#034e52" data-original="#000000" style="" class=""/>
	</g>
</g>
<g xmlns="http://www.w3.org/2000/svg">
</g>
<g xmlns="http://www.w3.org/2000/svg">
</g>
<g xmlns="http://www.w3.org/2000/svg">
</g>
<g xmlns="http://www.w3.org/2000/svg">
</g>
<g xmlns="http://www.w3.org/2000/svg">
</g>
<g xmlns="http://www.w3.org/2000/svg">
</g>
<g xmlns="http://www.w3.org/2000/svg">
</g>
<g xmlns="http://www.w3.org/2000/svg">
</g>
<g xmlns="http://www.w3.org/2000/svg">
</g>
<g xmlns="http://www.w3.org/2000/svg">
</g>
<g xmlns="http://www.w3.org/2000/svg">
</g>
<g xmlns="http://www.w3.org/2000/svg">
</g>
<g xmlns="http://www.w3.org/2000/svg">
</g>
<g xmlns="http://www.w3.org/2000/svg">
</g>
<g xmlns="http://www.w3.org/2000/svg">
</g>
</g></svg>
