<svg id="Icons" height="512" viewBox="0 0 60 60" width="512" xmlns="http://www.w3.org/2000/svg"><rect fill="#a56a43" height="38" rx="2" transform="matrix(0 1 -1 0 60 0)" width="58" x="1" y="11"/><path d="m44 31.73v19.45l.41.41a1.994 1.994 0 0 1 -2.82 2.82l-.41-.41h-22.36l-.41.41a1.994 1.994 0 0 1 -2.82-2.82l.41-.41v-19.45a2 2 0 0 1 0-3.46v-19.45l-.41-.41a1.994 1.994 0 0 1 2.82-2.82l.41.41h22.36l.41-.41a1.994 1.994 0 0 1 2.82 2.82l-.41.41v19.45a2 2 0 0 1 0 3.46z" fill="#26b99a"/><path d="m1.326 58.006-.326-54.994a2 2 0 0 1 2-2.012h1a2 2 0 0 1 2 2.015l-.4 54.992a1 1 0 0 1 -1 .993h-2.274a1 1 0 0 1 -1-.994z" fill="#a56a43"/><path d="m54.326 58.006-.326-54.994a2 2 0 0 1 2-2.012h1a2 2 0 0 1 2 2.015l-.4 54.992a1 1 0 0 1 -1 .993h-2.274a1 1 0 0 1 -1-.994z" fill="#a56a43"/><circle cx="30" cy="12" fill="#ecf0f1" r="2"/><circle cx="30" cy="32" fill="#35495e" r="2"/><circle cx="34" cy="39" fill="#f0c419" r="2"/><circle cx="30" cy="46" fill="#35495e" r="2"/><circle cx="38" cy="46" fill="#c03a2b" r="2"/><circle cx="22" cy="46" fill="#c03a2b" r="2"/><circle cx="26" cy="39" fill="#f0c419" r="2"/><path d="m5.62 55-.02 3.01a.994.994 0 0 1 -1 .99h-2.27a.994.994 0 0 1 -1-.99l-.02-3.01z" fill="#547580"/><path d="m5.81 29-.19 26h-4.31l-.15-26z" fill="#cf976a"/><path d="m58.62 55-.02 3.01a.994.994 0 0 1 -1 .99h-2.27a.994.994 0 0 1 -1-.99l-.02-3.01z" fill="#547580"/><path d="m58.81 29-.19 26h-4.31l-.15-26z" fill="#cf976a"/></svg>