<svg height="512pt" viewBox="0 0 512 512" width="512pt" xmlns="http://www.w3.org/2000/svg"><path d="m475.402344 419.898438-155.800782-309.296876c-15-30-45-48.601562-78.601562-48.601562s-63.601562 18.601562-78.601562 48.601562l-155.800782 309.296876c-4.195312 9-6.597656 18.601562-6.597656 28.5 0 35.101562 28.5 63.601562 63.601562 63.601562h354.796876c35.101562 0 63.601562-28.5 63.601562-63.601562 0-9.898438-2.402344-19.5-6.597656-28.5zm0 0" fill="#663325"/><path d="m482 448.398438c0 35.101562-28.5 63.601562-63.601562 63.601562h-177.398438v-450c33.601562 0 63.601562 18.601562 78.601562 48.601562l155.800782 309.296876c4.195312 9 6.597656 18.601562 6.597656 28.5zm0 0" fill="#3c1b13"/><path d="m448.398438 433.398438-155.800782-309.296876c-9.597656-19.800781-29.699218-32.101562-51.597656-32.101562s-42 12.300781-51.597656 32.101562l-155.800782 309.296876c-2.402343 4.800781-3.601562 9.902343-3.601562 15 0 18.601562 15 33.601562 33.601562 33.601562h354.796876c18.601562 0 33.601562-15 33.601562-33.601562 0-5.097657-1.199219-10.199219-3.601562-15zm0 0" fill="#7fe881"/><path d="m452 448.398438c0 18.601562-15 33.601562-33.601562 33.601562h-177.398438v-390c21.898438 0 42 12.300781 51.597656 32.101562l155.800782 309.296876c2.402343 4.800781 3.601562 9.902343 3.601562 15zm0 0" fill="#00ab94"/><path d="m512 30v61l-28.800781 30-1.199219-1.199219-30-28.800781v-61c0-16.5 13.5-30 30-30s30 13.5 30 30zm0 0" fill="#7fe881"/><path d="m512 30v61l-28.800781 30-1.199219-1.199219v-119.800781c16.5 0 30 13.5 30 30zm0 0" fill="#00ab94"/><path d="m151 437c-24.8125 0-45-20.1875-45-45s20.1875-45 45-45 45 20.1875 45 45-20.1875 45-45 45zm0 0" fill="#ae73e6"/><path d="m286 392c0 24.902344-20.097656 45-45 45s-45-20.097656-45-45 20.097656-45 45-45 45 20.097656 45 45zm0 0" fill="#8c4a37"/><path d="m331 437c-24.8125 0-45-20.1875-45-45s20.1875-45 45-45 45 20.1875 45 45-20.1875 45-45 45zm0 0" fill="#e53c79"/><path d="m286 212c0 24.902344-20.097656 45-45 45s-45-20.097656-45-45 20.097656-45 45-45 45 20.097656 45 45zm0 0" fill="#a4f7f7"/><path d="m196 347c-24.8125 0-45-20.1875-45-45s20.1875-45 45-45 45 20.1875 45 45-20.1875 45-45 45zm0 0" fill="#f2f2fc"/><path d="m286 347c-24.8125 0-45-20.1875-45-45s20.1875-45 45-45 45 20.1875 45 45-20.1875 45-45 45zm0 0" fill="#eebf00"/><path d="m452 91h60v421h-60zm0 0" fill="#fed2a4"/><path d="m482 91h30v421h-30zm0 0" fill="#f6a96c"/><path d="m286 392c0 24.902344-20.097656 45-45 45v-90c24.902344 0 45 20.097656 45 45zm0 0" fill="#663325"/><path d="m241 257v-90c24.902344 0 45 20.097656 45 45s-20.097656 45-45 45zm0 0" fill="#76e2f8"/></svg>