<?xml version="1.0" encoding="iso-8859-1"?>
<!-- Generator: Adobe Illustrator 19.0.0, SVG Export Plug-In . SVG Version: 6.00 Build 0)  -->
<svg version="1.1" id="Layer_1" xmlns="http://www.w3.org/2000/svg" xmlns:xlink="http://www.w3.org/1999/xlink" x="0px" y="0px"
	 viewBox="0 0 512 512" style="enable-background:new 0 0 512 512;" xml:space="preserve">
<path style="fill:#D8D8DA;" d="M431.013,175.25c-23.615-14.599-51.444-23.033-81.247-23.033c-13.923,0-27.412,1.85-40.247,5.298
	c-59.508,15.987-104.843,66.564-113.124,128.853C263.456,280.192,360.167,256.132,431.013,175.25z"/>
<path style="fill:#FECE00;" d="M504.057,295.183c-3.814-50.719-32.083-94.61-73.044-119.933
	c-70.847,80.882-167.557,104.942-234.618,111.118c-0.895,6.734-1.364,13.604-1.364,20.584c0,16.584,2.62,32.554,7.449,47.531
	c8.809,27.316,25.005,51.313,46.232,69.64C322.727,423.791,435.472,403.339,504.057,295.183z"/>
<path style="fill:#D8D8DA;" d="M251.282,424.103c-0.885,0.009-1.286,1.118-0.606,1.686c26.841,22.41,61.389,35.897,99.09,35.897
	c85.458,0,154.735-69.277,154.735-154.735c0-3.546-0.121-7.065-0.356-10.551c-0.026-0.388-0.535-0.511-0.745-0.184
	C435.545,402.232,325.077,423.311,251.282,424.103z"/>
<circle style="fill:#FFFFFF;" cx="359.751" cy="323.038" r="58.142"/>
<path style="fill:#2E2E30;" d="M309.519,157.514c-20.059-62.2-78.411-107.202-147.284-107.202
	C76.777,50.312,7.5,119.589,7.5,205.046s69.277,154.735,154.735,154.735c13.923,0,27.412-1.85,40.247-5.298
	c-4.83-14.977-7.449-30.948-7.449-47.531C195.032,235.416,243.578,175.231,309.519,157.514z"/>
<path style="fill:#1D1D1F;" d="M195.032,306.95c0-71.534,48.546-131.72,114.487-149.436c-3.38-10.481-7.851-20.471-13.273-29.843
	c-69.539,20.73-122.117,80.795-131.902,154.395c-1.082,8.142-1.648,16.447-1.648,24.885c0,18.268,2.637,35.916,7.521,52.605
	c11.102-0.567,21.9-2.289,32.264-5.073C197.651,339.505,195.032,323.535,195.032,306.95z"/>
<circle style="fill:#FFFFFF;" cx="102.913" cy="197.604" r="68.843"/>
<path d="M511.691,297.149l0.031-0.049l-0.187-2.479c-3.651-48.559-29.328-93.127-69.211-120.9l0.168-0.192l-7.535-4.658
	c-0.013-0.008-0.027-0.016-0.041-0.024l-5.36-3.315l-0.092,0.105c-24.249-13.697-51.664-20.919-79.699-20.919
	c-11.935,0-23.81,1.324-35.4,3.906c-10.951-29.599-30.103-55.102-55.721-74.063c-28.062-20.77-61.399-31.747-96.41-31.747
	C72.777,42.813,0,115.59,0,205.047S72.777,367.28,162.234,367.28c11.939,0,23.817-1.325,35.41-3.908
	c9.493,25.591,25.344,48.449,46.167,66.427l2.126,1.836h0.041c29.054,24.215,65.906,37.55,103.787,37.55
	c89.457,0,162.235-72.777,162.235-162.234C512,303.697,511.885,300.406,511.691,297.149z M419.1,177.045
	c0.075-0.019,0.152-0.033,0.227-0.051c-64.887,69.686-149.943,93.588-213.882,100.901c0.014-0.071,0.026-0.142,0.041-0.213
	c-0.101,0.086-0.211,0.162-0.314,0.245c-0.05,0.006-0.098,0.011-0.148,0.016c0.144-0.106,0.286-0.214,0.433-0.314
	c10.963-54.533,51.664-98.268,106.008-112.869c12.449-3.345,25.336-5.041,38.3-5.041C374.065,159.717,397.848,165.684,419.1,177.045
	z M162.234,352.28C81.049,352.28,15,286.232,15,205.047S81.049,57.813,162.234,57.813c61.53,0,115.851,37.707,137.549,94.622
	c0.148,0.001,0.292,0.017,0.438,0.023c-27.787,8.892-52.595,25.075-72.096,47.156c-20.048,22.701-33.204,50.189-38.262,79.824
	l-0.113,0.01l-0.789,5.932l-1.239,9.318l0.289-0.027c-0.006,0.085-0.013,0.169-0.019,0.254c-0.039,0.532-0.086,1.063-0.12,1.595
	c-0.096,1.483-0.167,2.972-0.222,4.464c-0.015,0.402-0.027,0.803-0.039,1.205c-0.047,1.583-0.079,3.168-0.079,4.76
	c0,1.61,0.031,3.217,0.078,4.822c0.008,0.288,0.015,0.576,0.025,0.863c0.053,1.542,0.129,3.081,0.226,4.617
	c0.019,0.298,0.04,0.595,0.061,0.893c0.108,1.582,0.233,3.162,0.387,4.738c0.007,0.074,0.016,0.147,0.024,0.22
	c0.152,1.537,0.332,3.07,0.528,4.6c0.035,0.27,0.067,0.539,0.103,0.808c0.203,1.521,0.428,3.038,0.674,4.552
	c0.05,0.306,0.102,0.612,0.153,0.918c0.259,1.54,0.534,3.077,0.838,4.609c0.027,0.138,0.058,0.275,0.085,0.412
	c0.293,1.462,0.61,2.918,0.944,4.371c0.059,0.258,0.116,0.517,0.177,0.775c0.349,1.484,0.721,2.962,1.112,4.436
	c0.04,0.15,0.073,0.301,0.113,0.451C182.955,351.192,172.619,352.28,162.234,352.28z M209.618,352.181
	c-4.702-14.586-7.087-29.804-7.087-45.23c0-1.2,0.016-2.397,0.046-3.591c0.009-0.351,0.026-0.702,0.037-1.053
	c0.028-0.867,0.057-1.733,0.099-2.597c0.015-0.299,0.036-0.598,0.052-0.897c0.054-0.961,0.111-1.921,0.183-2.878
	c0.01-0.128,0.021-0.256,0.031-0.385c0.061-0.774,0.134-1.546,0.207-2.317c67.617-7.137,159.583-32.045,229.138-108.199
	c36.332,24.666,60.002,64.551,64.044,108.221c-1,1.545-2.004,3.083-3.023,4.589c0.002,0.002,0.004,0.003,0.007,0.005
	c-64.822,96.135-166.278,117.896-241.835,118.75C232.063,399.155,217.603,376.94,209.618,352.181z M349.765,454.185
	c-28.213,0-55.797-8.149-79.354-23.217c0.118-0.007,0.234-0.016,0.352-0.023c-0.011-0.005-0.022-0.011-0.033-0.016
	c39.852-2.275,76.947-10.27,110.511-23.892c46.612-18.919,85.224-48.344,115.088-87.622c-0.002,0.008-0.003,0.015-0.005,0.023
	c0.056-0.073,0.113-0.144,0.168-0.217C490.237,394.685,426.819,454.185,349.765,454.185z"/>
<path d="M359.753,388.681c36.197,0,65.646-29.448,65.646-65.645s-29.448-65.645-65.646-65.645
	c-36.196,0-65.645,29.448-65.645,65.645S323.556,388.681,359.753,388.681z M359.753,272.392c27.926,0,50.645,22.719,50.645,50.645
	c0,0.564-0.024,1.121-0.043,1.681l-4.565-9.366l-11.158,5.438l-19.268-39.534l-12.035,5.866c-0.037,0.67-0.375,1.723-1.017,3.158
	c-0.641,1.437-1.465,2.98-2.473,4.629c-1.008,1.652-2.108,3.186-3.303,4.6c-1.195,1.418-2.318,2.381-3.373,2.895l5.353,10.981
	c1.111-0.542,2.286-1.366,3.521-2.478c1.235-1.108,2.368-2.313,3.402-3.615c1.032-1.299,1.942-2.594,2.728-3.884
	c0.785-1.288,1.271-2.412,1.455-3.372l12.973,26.62l-12.475,6.079l5.182,10.63l34.977-17.046
	c-1.698,26.401-23.705,47.362-50.527,47.362c-27.926,0-50.645-22.719-50.645-50.644S331.827,272.392,359.753,272.392z"/>
<path d="M102.909,121.259c-42.096,0-76.344,34.248-76.344,76.344s34.248,76.343,76.344,76.343s76.343-34.247,76.343-76.343
	S145.005,121.259,102.909,121.259z M102.909,258.945c-33.825,0-61.344-27.519-61.344-61.343c0-33.825,27.519-61.344,61.344-61.344
	c33.824,0,61.343,27.519,61.343,61.344S136.733,258.945,102.909,258.945z"/>
<path d="M126.265,170.026c-1.739-2.515-3.916-4.701-6.532-6.562c-2.617-1.86-5.295-3.263-8.034-4.206
	c-2.81-0.969-5.788-1.496-8.937-1.586c-3.149-0.089-6.201,0.316-9.154,1.213c-2.952,0.898-5.598,2.344-7.932,4.336
	c-2.336,1.993-4.067,4.633-5.2,7.921c-1.016,2.946-1.059,5.957-0.127,9.037c0.932,3.08,2.451,5.673,4.561,7.779
	c-1.607,0.214-3.266,0.638-4.979,1.272c-1.713,0.637-3.367,1.483-4.957,2.545c-1.593,1.061-3.033,2.346-4.318,3.856
	c-1.288,1.511-2.285,3.294-2.993,5.349c-1.157,3.357-1.535,6.675-1.132,9.955c0.4,3.282,1.446,6.361,3.137,9.242
	c1.688,2.882,3.947,5.441,6.778,7.682c2.829,2.24,6.06,3.985,9.69,5.236c3.63,1.252,7.236,1.9,10.823,1.949
	c3.585,0.049,6.936-0.502,10.053-1.65c3.114-1.148,5.848-2.851,8.197-5.107c2.347-2.254,4.112-5.095,5.293-8.521
	c0.731-2.122,1.078-4.187,1.043-6.192c-0.039-2.006-0.352-3.933-0.938-5.784c-0.589-1.851-1.374-3.577-2.354-5.179
	c-0.981-1.604-2.096-3.039-3.341-4.313c1.513-0.169,3.016-0.531,4.513-1.089c1.494-0.558,2.875-1.288,4.146-2.191
	c1.269-0.903,2.386-1.976,3.35-3.214c0.962-1.238,1.693-2.578,2.188-4.017c1.134-3.288,1.376-6.44,0.731-9.461
	C129.194,175.311,128.003,172.543,126.265,170.026z M106.811,214.132c-0.543,1.576-1.388,2.912-2.532,4.012
	c-1.146,1.1-2.467,1.93-3.961,2.486c-1.496,0.559-3.091,0.852-4.786,0.879c-1.695,0.03-3.365-0.24-5.01-0.807
	c-1.576-0.543-3.028-1.331-4.357-2.363c-1.33-1.033-2.412-2.229-3.246-3.591c-0.835-1.36-1.38-2.832-1.639-4.416
	c-0.259-1.583-0.105-3.197,0.461-4.841c0.566-1.645,1.423-3.016,2.568-4.115c1.145-1.1,2.447-1.934,3.909-2.504
	c1.46-0.569,3.032-0.852,4.718-0.846c1.683,0.006,3.348,0.292,4.991,0.858c1.575,0.543,3.033,1.315,4.376,2.313
	c1.34,1,2.452,2.168,3.332,3.506c0.879,1.337,1.444,2.815,1.691,4.433C107.572,210.755,107.4,212.42,106.811,214.132z
	 M114.891,183.35c-0.496,1.439-1.235,2.583-2.217,3.432c-0.983,0.851-2.102,1.48-3.354,1.891c-1.254,0.412-2.561,0.594-3.924,0.544
	c-1.362-0.048-2.627-0.272-3.791-0.674c-1.232-0.425-2.385-1.032-3.451-1.822c-1.07-0.788-1.978-1.716-2.723-2.777
	c-0.746-1.062-1.242-2.228-1.494-3.503c-0.25-1.273-0.127-2.631,0.369-4.069c0.873-2.533,2.567-4.23,5.087-5.086
	c2.516-0.856,5.178-0.802,7.987,0.167c2.877,0.991,5.066,2.59,6.568,4.792C115.449,178.447,115.764,180.817,114.891,183.35z"/>
<path d="M326.966,323.487c0.785-1.288,1.271-2.412,1.455-3.372l12.973,26.62l-12.475,6.08l5.182,10.63l35.668-17.385l-5.181-10.63
	l-11.158,5.438l-19.268-39.534l-12.035,5.866c-0.037,0.67-0.375,1.724-1.017,3.158c-0.641,1.437-1.465,2.98-2.473,4.629
	c-1.008,1.652-2.108,3.187-3.303,4.6c-1.195,1.418-2.318,2.381-3.373,2.895l5.353,10.982c1.112-0.542,2.286-1.367,3.521-2.479
	c1.235-1.107,2.369-2.313,3.402-3.614C325.271,326.072,326.181,324.778,326.966,323.487z"/>
<rect x="421.17" y="65.938" transform="matrix(-0.9426 -0.334 0.334 -0.9426 802.3776 319.6806)" width="15.001" height="49.851"/>
<rect x="478.157" y="102.683" transform="matrix(-0.7153 -0.6989 0.6989 -0.7153 743.8464 558.2888)" width="15" height="49.851"/>
<rect x="336.358" y="76.025" transform="matrix(-0.0926 -0.9957 0.9957 -0.0926 311.5711 450.9904)" width="49.849" height="15"/>
<g>
	<path style="fill:#898890;" d="M196.875,85.44c-6.067-1.782-12.336-3.109-18.631-3.945l1.975-14.869
		c7.054,0.937,14.079,2.424,20.883,4.422L196.875,85.44z"/>
	<path style="fill:#898890;" d="M260.166,128.645c-13.281-17.097-30.823-30.502-50.729-38.766l5.752-13.854
		c22.301,9.259,41.949,24.272,56.823,43.416L260.166,128.645z"/>
</g>
<g>
</g>
<g>
</g>
<g>
</g>
<g>
</g>
<g>
</g>
<g>
</g>
<g>
</g>
<g>
</g>
<g>
</g>
<g>
</g>
<g>
</g>
<g>
</g>
<g>
</g>
<g>
</g>
<g>
</g>
</svg>
